<svg xmlns="http://www.w3.org/2000/svg" version="1.1" xmlns:xlink="http://www.w3.org/1999/xlink" viewBox="0 0 6.017181561096355 4.585784141980186"><g transform="matrix(1,0,0,1,2.9990879302634594,4.336346178093848)"><rect width="6.017181561096355" height="6.017181561096355" x="-2.9990879302634594" y="-5.052044887651933" fill="#ffffff"></rect><g transform="matrix(1,0,0,1,0,0)"><path d=" M -2.1081784400900014 -1.7347929766961325 Q -2.1105573811840137 -1.7193501380881817 -2.1056414183970467 -1.7047596966230003 Q -2.10072545561008 -1.690169255157819 -2.0877718035534776 -1.6780459293989638 Q -2.074818151496875 -1.6659226036401087 -2.0532327086003574 -1.6569159347381395 Q -2.0316472657038394 -1.6479092658361705 -2.0007615884879377 -1.6431513836481457 L -1.9770465194570017 -1.7970971810211565 Q -2.0108277289118943 -1.8023011146643084 -2.034568453471638 -1.80052387957925 Q -2.058309178031382 -1.7987466444941913 -2.073624136259534 -1.7907310260695783 Q -2.088939094487686 -1.7827154076449654 -2.097071929105086 -1.7684059663005183 Q -2.1052047637224858 -1.7540965249560714 -2.1081784400900014 -1.7347929766961325 M -2.2372224502335123 -1.718112941167345 Q -2.2272606344023353 -1.7827798278381395 -2.199965330904699 -1.8316844374192092 Q -2.1726700274070625 -1.8805890470002788 -2.1332760038084846 -1.911820560697761 Q -2.0938819802099067 -1.943052074395243 -2.045266500123692 -1.9555716065901758 Q -1.9966510200374776 -1.968091138785108 -1.944048851029145 -1.9599878706836287 Q -1.9223323592367139 -1.9566424847701738 -1.9111969154391009 -1.9487515782092457 Q -1.9000614716414879 -1.9408606716483177 -1.8959802710748277 -1.9288690284885983 Q -1.8918990705081673 -1.916877385328879 -1.8929789293010602 -1.9002463435803674 Q -1.8940587880939528 -1.8836153018318562 -1.897255490189032 -1.862863987452422 L -1.9330139485084055 -1.63073881962666 Q -1.8799291907935742 -1.6225612096159923 -1.8451991714417018 -1.6283270347328376 Q -1.8104691520898295 -1.6340928598496829 -1.7891571048753723 -1.6505714155604818 Q -1.767845057660915 -1.6670499712712807 -1.7571669632086642 -1.6930713230611585 Q -1.7464888687564133 -1.719092674851036 -1.7414336189316368 -1.7519087068929318 Q -1.738757310200873 -1.7692819003268765 -1.7392732676426286 -1.7883819588913825 Q -1.7397892250843843 -1.8074820174558888 -1.7424585630796974 -1.8254316775376511 Q -1.7451279010750107 -1.8433813376194135 -1.7486887082773557 -1.858751101724622 Q -1.7522495154797006 -1.8741208658298305 -1.756071153067426 -1.8845904009608667 Q -1.759224980878906 -1.892980897447533 -1.7581098522410876 -1.90021972804501 Q -1.7563999883297663 -1.9113192682944748 -1.7460230637336036 -1.9161432542497912 Q -1.7356461391374411 -1.9209672402051075 -1.724064010181478 -1.9191830343845981 Q -1.72020330052949 -1.918588299111095 -1.7168995214931888 -1.9175853170402812 Q -1.7135957424568875 -1.9165823349694677 -1.7104406472389617 -1.914614175485657 Q -1.676884998324524 -1.8951178017172978 -1.650199005274515 -1.8663048261135378 Q -1.623513012224506 -1.8374918505097777 -1.6063880838792612 -1.7995298592179005 Q -1.5892631555340164 -1.7615678679260236 -1.5837039886287176 -1.7142716398762827 Q -1.5781448217234189 -1.6669754118265419 -1.5868428250984015 -1.6105125331662213 Q -1.5951691189274448 -1.5564625980383933 -1.6148343462495338 -1.513793203280764 Q -1.6344995735716226 -1.4711238085231348 -1.6629610093647973 -1.4387021905754238 Q -1.691422445157972 -1.4062805726277128 -1.7264712692883954 -1.3840134872518233 Q -1.7615200934188189 -1.361746401875934 -1.800706191399405 -1.3495034338791763 Q -1.839892289379991 -1.3372604658824183 -1.8810811829860903 -1.3344657823201975 Q -1.9222700765921896 -1.3316710987579765 -1.9628075279380606 -1.3379158191297589 Q -2.00382756799043 -1.3442348814107292 -2.042711228708482 -1.3596116162513887 Q -2.081594889426534 -1.374988351092048 -2.1149640498647795 -1.3989023651280812 Q -2.148333210303025 -1.4228163791641144 -2.174740104341968 -1.4550446466679579 Q -2.201146998380911 -1.487272914171801 -2.21793738813481 -1.5274065546429212 Q -2.23472777788871 -1.5675401951140415 -2.2402126028848204 -1.6153190118702807 Q -2.2456974278809314 -1.66309782862652 -2.2372224502335123 -1.718112941167345 M -1.2727299267020764 -2.67498046175879 Q -1.2564566212481612 -2.6633202232932485 -1.2441993371369169 -2.661145122690458 Q -1.2319420530256728 -2.658970022087668 -1.2228272523386314 -2.6620500256220323 Q -1.2137124516515903 -2.665130029156396 -1.206380633977915 -2.6715899897236253 Q -1.19904881630424 -2.678049950290855 -1.192513929896478 -2.6829785282160974 Q -1.1859790434887159 -2.6879071061413398 -1.17908004288059 -2.6895713523503746 Q -1.1721810422724646 -2.691235598559409 -1.1634490247118272 -2.6849788852364354 Q -1.1182012973521602 -2.652557734381027 -1.131716083047555 -2.591360366428055 Q -1.14523086874295 -2.530162998475083 -1.2086511901530912 -2.4416520932013484 Q -1.2257149537612009 -2.417837499854155 -1.2420849654693622 -2.4025361193849766 Q -1.2584549771775233 -2.387234738915798 -1.2742468623023941 -2.379027702511632 Q -1.2900387474272652 -2.3708206661074662 -1.305338447084421 -2.369168865849125 Q -1.3206381467415766 -2.367517065590784 -1.3358456823078104 -2.370604722776145 Q -1.3337141425324472 -2.353459560215784 -1.333662427781279 -2.330896745750139 Q -1.3336107130301107 -2.3083339312844937 -1.3398954297421444 -2.2807003408635387 Q -1.3461801464541783 -2.2530667504425836 -1.3601904792413337 -2.221357770276792 Q -1.374200812028489 -2.1896487901109998 -1.3995120613805185 -2.15432380997933 Q -1.42823606345417 -2.1142359111782216 -1.4613902350100019 -2.091438484455215 Q -1.4945444065658338 -2.0686410577322087 -1.5298629135857849 -2.0600088579134903 Q -1.565181420605736 -2.0513766580947723 -1.6017876136836646 -2.0547798262170023 Q -1.6383938067615933 -2.058182994339232 -1.6743062479395736 -2.0700993753394767 Q -1.7102186891175537 -2.0820157563397212 -1.7442763329293087 -2.10071240114376 Q -1.7783339767410637 -2.119409045947799 -1.808896038203295 -2.1413075425782067 Q -1.8402519194437659 -2.1637748313288845 -1.8691310657709224 -2.191375375924711 Q -1.8980102120980786 -2.218975920520538 -1.920638868077608 -2.2511081331524876 Q -1.9432675240571375 -2.283240345784437 -1.9580580501325606 -2.3187666422119677 Q -1.9728485762079837 -2.354292938639499 -1.9755740501413759 -2.3919866820188225 Q -1.978299524074768 -2.4296804253981463 -1.9672004240784995 -2.4694822473270968 Q -1.9561013240822307 -2.5092840692560476 -1.9273773220085793 -2.549371968057156 Q -1.9071852017389828 -2.5775525701846678 -1.8865226764153844 -2.597587185122202 Q -1.8658601510917863 -2.617621800059736 -1.8458882661804632 -2.631243376881513 Q -1.8259163812691401 -2.64486495370329 -1.8070883035737044 -2.6526985414440722 Q -1.7882602258782687 -2.6605321291848547 -1.772133910754117 -2.6645950729789982 L -1.8916037873792024 -2.750198287079682 Q -1.9078770928331177 -2.7618585255452235 -1.9193968140806146 -2.7638054870023705 Q -1.9309165353281112 -2.765752448459518 -1.9401735340452202 -2.7624739899805943 Q -1.949430532762329 -2.7591955315016703 -1.956279499431309 -2.752990282793493 Q -1.9631284661002892 -2.746785034085316 -1.9698055505381187 -2.7416580012155136 Q -1.9764826349759481 -2.7365309683457113 -1.9832394375540066 -2.7350651770812364 Q -1.9899962401320646 -2.733599385816762 -1.9987282576927021 -2.7398560991397356 Q -2.0213521213725354 -2.75606667456744 -2.0290372881079035 -2.7792935567319503 Q -2.0367224548432716 -2.802520438896461 -2.0310299914772445 -2.8326807981698763 Q -2.025337528111217 -2.8628411574432917 -2.0064955737894374 -2.899197430961864 Q -1.9876536194676573 -2.9355537044804363 -1.957223241033195 -2.978023062616264 Q -1.9265084665385974 -3.0208893306412117 -1.904367703999831 -3.042567842049718 Q -1.8822269414610646 -3.064246353458224 -1.8624659574449949 -3.0696094292610385 Q -1.8427049734289251 -3.074972505063853 -1.822284463877314 -3.0657468713598495 Q -1.8018639543257027 -3.056521237655846 -1.7748740818655504 -3.037182305566655 L -1.2727299267020764 -2.67498046175879 M -1.4263841975818272 -2.3297569804248317 Q -1.4150083551764208 -2.345633375989627 -1.4094736472788278 -2.3650944065071946 Q -1.403938939381235 -2.384555437024763 -1.4024389217523532 -2.400900556831537 Q -1.4133273709897405 -2.4075010346168115 -1.4238454830514176 -2.4150375302103932 Q -1.4343635951130946 -2.422574025803975 -1.4454770720084513 -2.4305371154877595 L -1.6967210318213388 -2.6105598215533172 Q -1.714328695648332 -2.6027528065259444 -1.7329348571734715 -2.5914564321243945 Q -1.7515410186986113 -2.5801600577228445 -1.7637700492844233 -2.5630929324906893 Q -1.7768522680506407 -2.5448350775911748 -1.7769068441531104 -2.5271539185993 Q -1.7769614202555801 -2.5094727596074247 -1.7621491137664436 -2.488647686515696 Q -1.747336807277307 -2.4678226134239676 -1.7160434059266751 -2.441495628123402 Q -1.6847500045760433 -2.4151686428228367 -1.6355331783251774 -2.3799035313660766 Q -1.605764936641186 -2.3585738268559395 -1.5753685344347585 -2.339797463911672 Q -1.5449721322283312 -2.3210211009674047 -1.51731508058164 -2.311415795624671 Q -1.4896580289349488 -2.3018104902819374 -1.4659842029421726 -2.3046702584580276 Q -1.4423103769493963 -2.307530026634118 -1.4263841975818272 -2.3297569804248317 M -0.7079228691310451 -3.2883412801494063 Q -0.7156029697795848 -3.306829051391447 -0.7248714526717521 -3.3151397253288373 Q -0.7341399355639195 -3.3234503992662274 -0.7437343107578678 -3.3255452214267778 Q -0.753328685951816 -3.327640043587328 -0.7627391275741868 -3.326110118179204 Q -0.7721495691965576 -3.3245801927710805 -0.7805263674584202 -3.3237440268078924 Q -0.788903165720283 -3.3229078608447047 -0.7956428349842726 -3.3251310979097157 Q -0.8023825042482622 -3.3273543349747268 -0.8065035338645518 -3.3372746024704556 Q -0.8278579600580527 -3.388679624948325 -0.7841088887456249 -3.433554852369075 Q -0.7403598174331971 -3.478430079789825 -0.6398043787264882 -3.5202023345367603 Q -0.605985284991048 -3.5342512991377477 -0.5803658278587642 -3.5374916975691373 Q -0.5547463707264806 -3.5407320960005264 -0.5349575206576548 -3.5357342689438207 Q -0.5151686705888291 -3.530736441887115 -0.5002704439869596 -3.5184196094121534 Q -0.4853722173850903 -3.5061027769371913 -0.47357830682118096 -3.4885308398085537 Q -0.4617843962572714 -3.470958902679916 -0.4521166770379308 -3.4495956619812542 Q -0.44244895781858995 -3.4282324212825923 -0.43270834236190536 -3.404784516292687 L -0.33230507534684883 -3.1630907263967405 Q -0.3248122942263223 -3.145053876404506 -0.315956591487071 -3.137100463952915 Q -0.3071008887478198 -3.129147051501324 -0.2975065135538715 -3.127052229340774 Q -0.28791213835992324 -3.1249574071802235 -0.278820817126462 -3.1266191334492435 Q -0.26972949589300077 -3.128280859718264 -0.2613526976311381 -3.1291170256814516 Q -0.25297589936927545 -3.1299531916446397 -0.24646169073018864 -3.127636294815622 Q -0.23994748209110206 -3.1253193979866047 -0.23582645247481238 -3.1153991304908755 Q -0.21447202628131157 -3.063994108013006 -0.25709379446922465 -3.019587179412289 Q -0.29971556265713784 -2.9751802508115723 -0.39666363136539984 -2.9349065522887416 Q -0.4205624576051109 -2.9249786173040437 -0.44054878507125683 -2.920905886653951 Q -0.46053511253740287 -2.9168331560038583 -0.476723364520653 -2.916981886646933 Q -0.49291161650390325 -2.9171306172900078 -0.5059226562118495 -2.920449788295515 Q -0.5189336959197959 -2.9237689593010225 -0.5290692661711209 -2.9290757488773305 Q -0.5523442910348529 -2.9405564153891044 -0.5663305172678035 -2.962769365876697 Q -0.578726570104932 -2.9264243966814663 -0.6021252805525432 -2.8923823327014615 Q -0.6119065274864559 -2.877744321864949 -0.6255761237108355 -2.8622841366790404 Q -0.639245719935215 -2.8468239514931315 -0.6568210430202881 -2.8318562146103536 Q -0.6743963661053614 -2.8168884777275762 -0.6963838559680511 -2.8029959112586322 Q -0.7183713458307408 -2.7891033447896882 -0.7449756995692871 -2.7780514926369118 Q -0.7945770370479327 -2.7574463445554636 -0.8358020240527644 -2.7548611166840717 Q -0.877027011057596 -2.75227588881268 -0.9106698387104273 -2.762622032499019 Q -0.9443126663632587 -2.7729681761853584 -0.9710704800654614 -2.794105508471069 Q -0.997828293767664 -2.8152428407567793 -1.0189462058908576 -2.8418954934615224 Q -1.040064118014051 -2.8685481461662654 -1.055826493806691 -2.8982186748458822 Q -1.0715888695993312 -2.9278892035254986 -1.0832026803361474 -2.9558463210134627 L -1.1448308050524787 -3.104199412199594 Q -1.1526982252290316 -3.1231381046914404 -1.1620603678852055 -3.1316742392537336 Q -1.1714225105413796 -3.1402103738160263 -1.1814296658882437 -3.142662457462376 Q -1.1914368212351083 -3.145114541108726 -1.200847262857479 -3.1435846157006018 Q -1.2102577044798497 -3.142054690292478 -1.218953623130622 -3.1413503251901864 Q -1.2276495417813942 -3.140645960087895 -1.2343892110453838 -3.142869197152906 Q -1.2411288803093734 -3.1450924342179167 -1.245249909925663 -3.155012701713646 Q -1.266604336119164 -3.2064177241915153 -1.2228552648067361 -3.2512929516122653 Q -1.1791061934943083 -3.296168179033015 -1.0785507547875994 -3.337940433779951 Q -1.0339095510568181 -3.3564850670532542 -1.002809528645956 -3.35671480921069 Q -0.9717095062350937 -3.3569445513681258 -0.9499571870785654 -3.3440382248695903 Q -0.928204867922037 -3.331131898371055 -0.9134693635770339 -3.307115262884239 Q -0.8987338592320305 -3.2830986273974228 -0.8863707703831617 -3.2533378249102354 L -0.7938349235446581 -3.0305827275061357 Q -0.7822211128078418 -3.002625610018172 -0.7688523638260476 -2.9825354649187124 Q -0.7554836148442534 -2.9624453198192526 -0.7389690227711736 -2.9513286867061495 Q -0.722454430698094 -2.940212053593046 -0.7024922527150463 -2.9392517542579304 Q -0.6825300747319989 -2.938291454922815 -0.6577294059926759 -2.948594028963539 Q -0.6419471622494706 -2.955150212444 -0.6300291183136334 -2.9659172515602723 Q -0.6181110743777962 -2.976684290676545 -0.6114862761925246 -2.990011064816965 Q -0.6048614780072529 -3.0033378389573855 -0.6039253281552357 -3.0182669869552248 Q -0.6029891783032184 -3.0331961349530636 -0.6091707227276528 -3.0480765361966573 L -0.7079228691310451 -3.2883412801494063 M 0.2188877373208586 -3.1995144999323357 Q 0.21787391947890178 -3.1834331440807624 0.2179115336462794 -3.168508629257826 Q 0.21794914781365715 -3.1535841144348895 0.22208496388361987 -3.141581365378607 Q 0.22622077995358258 -3.1295786163223243 0.23602426550193545 -3.1221110661222298 Q 0.2458277510502883 -3.1146435159221353 0.2638583621565978 -3.113506811069032 Q 0.2891986804681679 -3.1119092799241304 0.3083750059576221 -3.1173052289265817 Q 0.3275513314470763 -3.1227011779290335 0.3482070763694265 -3.132162489965833 Q 0.3562805931634503 -3.1360567662444043 0.3631029865550268 -3.135626661705392 Q 0.3743112042697597 -3.134920061391301 0.380275505698763 -3.1247590414550017 Q 0.38623980712776607 -3.114598021518702 0.38547176330810184 -3.102415176176601 Q 0.38494949351073005 -3.0941308413439725 0.3821749851616577 -3.088923998157381 Q 0.3657694748586142 -3.0537537067755722 0.34178411292158284 -3.026400031520003 Q 0.3177987509845513 -2.9990463562644334 0.28754398720610147 -2.9808944341941888 Q 0.2572892234276517 -2.962742512123944 0.22201406409478036 -2.954202852670742 Q 0.1867389047619089 -2.9456631932175394 0.14726648585350166 -2.948151655193252 Q 0.09268733872088919 -2.9515924915053477 0.05457780358058323 -2.967938675418268 Q 0.016468268440277295 -2.984284859331189 -0.008874708054982805 -3.0091219618844423 Q -0.03421768455024293 -3.0339590644376955 -0.048378930852655586 -3.065429995634905 Q -0.06254017715506827 -3.0969009268321144 -0.06896372882865888 -3.130819553743236 Q -0.0753872805022495 -3.164738180654358 -0.07593234465884509 -3.1987754603457246 Q -0.07647740881544066 -3.2328127400370916 -0.07457266014267327 -3.263026196485502 L -0.05902745323266863 -3.5096069862096266 L -0.08290583010318658 -3.5111123520961685 Q -0.10093644120949608 -3.5122490569492717 -0.11050951361194966 -3.523371460751996 Q -0.12008258601440323 -3.534493864554721 -0.1192838204419524 -3.547164023710506 Q -0.11833144610556871 -3.5622707519347117 -0.10404150251389761 -3.5716441329440523 Q -0.04444515907879301 -3.608984048217483 0.005235938442304661 -3.6442581725713827 Q 0.05491703596340233 -3.6795322969252826 0.09093375159405254 -3.707595230678633 Q 0.1331054505167769 -3.740162641535385 0.1667163188317934 -3.7688664978663526 Q 0.1801852435600293 -3.7807378914496867 0.19372673843933047 -3.7859998267955 Q 0.20726823331863176 -3.791261762141313 0.21945107866073277 -3.790493718321649 Q 0.234557806884938 -3.789541343985265 0.24414624016378483 -3.778662597089382 Q 0.2537346734426317 -3.7677838501934993 0.2523829163200225 -3.746342042391402 L 0.2424290684171737 -3.588452366757773 L 0.3613336389560795 -3.5809562590778494 Q 0.36718140472028804 -3.580587598044411 0.3751760000168948 -3.579349718402906 Q 0.3831705953135016 -3.5781118387614015 0.39020380674368305 -3.573265188146447 Q 0.3972370181738645 -3.5684185375314916 0.4017547390382088 -3.558593339760394 Q 0.40627245990255323 -3.5487681419892962 0.4051664768022366 -3.5312248446966708 Q 0.40396832844356034 -3.5122196059629935 0.39845003349820196 -3.502293233403494 Q 0.3929317385528436 -3.492366860843995 0.38531481381971733 -3.487954548998953 Q 0.37769788908659097 -3.4835422371539115 0.3696111285316245 -3.4833181753543636 Q 0.361524367976658 -3.483094113554816 0.3551892883987654 -3.4834934963410413 L 0.2362847178598596 -3.4909896040209647 L 0.2188877373208586 -3.1995144999323357 M 0.9573349075534948 -3.2637433276433794 Q 0.9431531492205522 -3.270302165618662 0.9277721372216774 -3.26961503960242 Q 0.9123911252228025 -3.268927913586178 0.8971570256889334 -3.25983427072696 Q 0.8819229261550643 -3.250740627867742 0.86729554532133 -3.2324898426875524 Q 0.8526681644875957 -3.2142390575073625 0.8395504885370297 -3.185875540841477 L 0.980924891918551 -3.1204921247753754 Q 0.9952723499894826 -3.151514721128687 1.0001331456820943 -3.174820369208152 Q 1.0049939413747058 -3.1981260172876174 1.0015286275404487 -3.215060883224174 Q 0.9980633137061915 -3.2319957491607303 0.9865627095879322 -3.2437702646675026 Q 0.975062105469673 -3.2555447801742754 0.9573349075534948 -3.2637433276433794 M 0.9770102952108287 -3.3923647071247616 Q 1.0363964082300257 -3.3648995731032643 1.075839705160651 -3.3251387788638698 Q 1.1152830020912763 -3.2853779846244753 1.1343956300871312 -3.23888062992323 Q 1.153508258082986 -3.192383275221985 1.152087977577359 -3.1422017408325464 Q 1.1506676970717318 -3.092020206443108 1.1283266552184243 -3.0437135921215224 Q 1.1191032893156827 -3.023770494465822 1.1084394477986872 -3.0152530418523056 Q 1.0977756062816917 -3.006735589238789 1.0851229032391583 -3.00613159465867 Q 1.0724702001966246 -3.005527600078551 1.0567871909076902 -3.011166825583576 Q 1.041104181618756 -3.016806051088601 1.0220474438588645 -3.0256194896178874 L 0.8088778889168214 -3.1242070229338594 Q 0.7863318833767863 -3.0754572286643693 0.7822634196637963 -3.0404877192815434 Q 0.7781949559508065 -3.0055182098987174 0.7881335337713362 -2.980478824409244 Q 0.7980721115918659 -2.9554394389197713 0.8201231789036929 -2.9379785431663157 Q 0.84217424621552 -2.9205176474128605 0.8723104826730229 -2.9065801167153844 Q 0.8882649607975832 -2.899201423993191 0.9067621345989979 -2.89441258168951 Q 0.9252593084004126 -2.889623739385829 0.9432467971050243 -2.887222507933948 Q 0.961234285809636 -2.8848212764820675 0.9769892484875008 -2.8839905252550935 Q 0.9927442111653656 -2.883159774028119 1.003862410677458 -2.8839354797205163 Q 1.0127979630244779 -2.8846446802640147 1.0194456622430446 -2.881570224963101 Q 1.0296388010448472 -2.8768560601683664 1.031403348476417 -2.8655495232567705 Q 1.0331678959079866 -2.854242986345175 1.0282487674265246 -2.843606667595468 Q 1.0266090579327039 -2.8400612280122326 1.0247311321777062 -2.837163932063629 Q 1.0228532064227087 -2.8342666361150255 1.0200889207719022 -2.831779267539877 Q 0.9920693894648311 -2.8049278983100474 0.9569976798057699 -2.787255745928446 Q 0.9219259701467089 -2.7695835935468454 0.8807077924387072 -2.763630629570311 Q 0.8394896147307056 -2.7576776655937767 0.7925016437727694 -2.7654215735006544 Q 0.7455136728148332 -2.7731654814075326 0.6936616189100119 -2.7971462327546606 Q 0.6440254647447129 -2.820102165668151 0.608462857261832 -2.8508055753099217 Q 0.572900249778951 -2.881508984951692 0.5496191187796298 -2.9178298271383594 Q 0.5263379877803085 -2.9541506693250263 0.5146375866482249 -2.9939921524476567 Q 0.5029371855161414 -3.033833635570287 0.5020142857916098 -3.0748773780459944 Q 0.5010913860670781 -3.1159211205217017 0.5098020611858721 -3.15627529442828 Q 0.5185127363046661 -3.1966294683348577 0.5357296859897839 -3.2338565839588322 Q 0.5531515993616293 -3.2715268795307106 0.5786864862135679 -3.3046380951329084 Q 0.6042213730655066 -3.337749310735106 0.6364344875904453 -3.3631991867322917 Q 0.668647602115384 -3.3886490627294776 0.7069240532531401 -3.4051080592779375 Q 0.7452005043908962 -3.4215670558263978 0.7884129918644679 -3.426597683212658 Q 0.8316254793380395 -3.431628310598918 0.8790566302438803 -3.423679439005313 Q 0.9264877811497209 -3.4157305674117073 0.9770102952108287 -3.3923647071247616 M 1.7037176030919587 -2.842736071989076 Q 1.7524972165676376 -2.7887575560424778 1.7750808286176134 -2.7397343300219177 Q 1.7976644406675892 -2.690711104001357 1.799475360242078 -2.6479244719138846 Q 1.801286279816567 -2.605137839826412 1.7842646645263063 -2.569353913618221 Q 1.767243049236046 -2.53356998741003 1.7368122080312522 -2.5060700710881707 Q 1.7241326908625885 -2.4946117726207295 1.710750169528423 -2.4897575049131406 Q 1.6973676481942577 -2.4849032372055513 1.6844279525413355 -2.4853850485409485 Q 1.6714882568884133 -2.485866859876346 1.6593536588358386 -2.4920121302109415 Q 1.6472190607832637 -2.498157400545537 1.6373976620968853 -2.509025558118678 Q 1.6288857832353574 -2.5184446280153994 1.6233069716895594 -2.5311723894371396 Q 1.617728160143761 -2.5439001508588794 1.6171164795767519 -2.5591422760416442 Q 1.6165047990097432 -2.5743844012244086 1.6218772812530533 -2.5917437262862015 Q 1.6272497634963639 -2.609103051347994 1.640640472213053 -2.627785248524821 Q 1.6499764058938067 -2.6414869624326744 1.6537951245720222 -2.6554678120436646 Q 1.6576138432502376 -2.669448661654655 1.6572423127322111 -2.6826043852300216 Q 1.6568707822141846 -2.6957601088053886 1.6519292845993654 -2.7074185004512605 Q 1.6469877869845462 -2.7190768920971324 1.6391306680354436 -2.727771418155645 Q 1.6250533299183014 -2.7433491106771464 1.6082199667537198 -2.748867836917117 Q 1.5913866035891382 -2.7543865631570874 1.572013243299562 -2.750699664968951 Q 1.5526398830099852 -2.747012766780814 1.5314336234521773 -2.7344301781393368 Q 1.5102273638943693 -2.7218475894978593 1.4877665049098787 -2.7015500322126775 Q 1.4008212443247543 -2.622978842721651 1.3827138844935773 -2.5589017436440047 Q 1.3646065246624004 -2.494824644566359 1.4169873176564183 -2.436861137509609 Q 1.4320467956421983 -2.4201966292307935 1.4522894325292122 -2.406899826566426 Q 1.4725320694162258 -2.3936030239020587 1.4913887264075134 -2.383660574561956 Q 1.5102453833988005 -2.373718125221853 1.5245951810739875 -2.36694221710137 Q 1.5389449787491745 -2.360166308980887 1.542546158267513 -2.3561813178707354 Q 1.550075897260403 -2.347849063731328 1.5472675342686255 -2.336755619636821 Q 1.5444591712768483 -2.3256621755423144 1.535402373299231 -2.317477676636999 Q 1.5325041979463936 -2.314858636987298 1.5298046045345546 -2.3127481132533623 Q 1.5271050111227154 -2.310637589519426 1.5235869678203446 -2.309432745583252 Q 1.4872848270764325 -2.2957125144775548 1.4472916944531211 -2.294451678926815 Q 1.40729856182981 -2.293190843376075 1.3663904908098152 -2.304594661466383 Q 1.3254824197898205 -2.3159984795566912 1.285617013965326 -2.341177889171899 Q 1.2457516081408313 -2.366357298787107 1.2100671929136568 -2.4058449379695177 Q 1.1734006378178443 -2.446419392909242 1.1525545077463457 -2.488786250225612 Q 1.131708377674847 -2.531153107541982 1.1245264870944802 -2.57369291343538 Q 1.1173445965141133 -2.6162327193287784 1.1223604117670134 -2.6572911280366953 Q 1.1273762270199132 -2.6983495367446126 1.1424510085543442 -2.73665192040509 Q 1.157525790088775 -2.774954304065568 1.1813566942249782 -2.8086651809565453 Q 1.2051875983611815 -2.842376057847522 1.235618439565975 -2.8698759741693816 Q 1.2664115526898734 -2.8977032704474532 1.3028814771031543 -2.9181563303282174 Q 1.339351401516435 -2.938609390208981 1.3789622337853655 -2.949396553998949 Q 1.4185730660542961 -2.9601837177889165 1.4602379904215625 -2.9603228456194506 Q 1.501902914788829 -2.960461973449984 1.543629435699355 -2.9481524755619146 Q 1.5853559566098814 -2.9358429776738446 1.6258761223468012 -2.9099390242204275 Q 1.666396288083721 -2.8840350707670104 1.7037176030919587 -2.842736071989076 M 2.1001738697969823 -1.9459827080479997 Q 2.1147202387706234 -1.9380116234313438 2.133395127169985 -1.923516738378834 Q 2.152070015569346 -1.9090218533263243 2.1711961423402477 -1.8855846737609423 Q 2.1903222691111495 -1.8621474941955602 2.2075882597586767 -1.828944845125842 Q 2.2248542504062043 -1.795742196056124 2.236226060618338 -1.7497643498335593 Q 2.249356398182864 -1.6966765273910105 2.2452262559109846 -1.6554154522482167 Q 2.241096113639104 -1.614154377105423 2.224850740939005 -1.5822201775638274 Q 2.208605368238905 -1.5502859780222318 2.1829078450759796 -1.5270798338293008 Q 2.1572103219130536 -1.5038736896363698 2.1268516633313292 -1.487311109929799 Q 2.096493004749605 -1.4707485302232286 2.0642535258713015 -1.4597566963358193 Q 2.032014046992998 -1.4487648624484097 2.0026261452837297 -1.44149628272519 L 1.8528426462493954 -1.4044499731681346 Q 1.8324607144187741 -1.399408861424611 1.8223743391918865 -1.3913812350994623 Q 1.8122879639649994 -1.3833536087743137 1.8083559814477232 -1.3738301962646715 Q 1.8044239989304471 -1.3643067837550296 1.8043400924152284 -1.3544776388849193 Q 1.8042561859000097 -1.3446484940148093 1.8036421922853931 -1.33594572760295 Q 1.8030281986707763 -1.3272429611910912 1.7998148004565404 -1.320915244639921 Q 1.7966014022423045 -1.3145875280887511 1.786173437119661 -1.3120083546385763 Q 1.7321376178477808 -1.298643546760398 1.6944255669800974 -1.3484179850638887 Q 1.6567135161124142 -1.398192423367379 1.6305700761401882 -1.5038940698378112 Q 1.6179086792029669 -1.5550858986216975 1.6138661421623859 -1.5958345889208572 Q 1.609823605121805 -1.6365832792200168 1.6157021591713545 -1.6667079205118491 Q 1.6215807132209041 -1.6968325618036815 1.637319211888491 -1.7155635388877752 Q 1.6530577105560775 -1.7342945159718688 1.6800756201920177 -1.740976919910958 Q 1.6905035853146613 -1.7435560933611327 1.6962961569790718 -1.739455844789659 Q 1.7020887286434827 -1.7353555962181857 1.7066887175901875 -1.727942416531414 Q 1.7112887065368927 -1.720529236844642 1.7156491673825842 -1.712050825171713 Q 1.720009628228276 -1.7035724134987837 1.7276906068703073 -1.6969212623313819 Q 1.7353715855123388 -1.6902701111639797 1.7475631357747354 -1.6877525372096591 Q 1.759754686037132 -1.685234963255338 1.7801366178677533 -1.6902760749988615 L 1.9735279710513243 -1.7381080189839206 Q 2.0038638695899236 -1.7456110690207924 2.026982672326435 -1.7558560477509155 Q 2.050101475062946 -1.7661010264810384 2.063875246918735 -1.7805736045141833 Q 2.0776490187745242 -1.795046182547328 2.0820216710648585 -1.814989973498572 Q 2.0863943233551927 -1.8349337644498158 2.0798291545729297 -1.8614776756710905 Q 2.076429335024972 -1.8752236296963931 2.06982370394382 -1.885661710393759 Q 2.063218072862668 -1.8960997910911246 2.0553637703790777 -1.9044685542882693 Q 2.0475094678954875 -1.912837317485414 2.0395303435740297 -1.9186602358739915 Q 2.031551219252572 -1.9244831542625689 2.0250476499661625 -1.9284075500988032 L 1.7368566138494688 -1.8571285747485191 Q 1.7174226788481786 -1.852321933318648 1.7078103020359567 -1.8444115421503253 Q 1.698197925223735 -1.8365011509820026 1.6946813235427114 -1.8273319728365196 Q 1.691164721861688 -1.8181627946910366 1.6912591969753892 -1.8086292666066721 Q 1.6913536720890903 -1.799095738522308 1.6909180601033933 -1.7906885888961948 Q 1.690482448117696 -1.7822814392700814 1.6872690499034602 -1.7759537227189115 Q 1.6840556516892242 -1.7696260061677416 1.6736276865665807 -1.7670468327175668 Q 1.6195918672947007 -1.7536820248393885 1.5818211988486044 -1.8036934623502119 Q 1.544050530402508 -1.853704899861035 1.517907090430282 -1.9594065463314672 Q 1.492701531712665 -2.0613162054845744 1.5030977910398613 -2.1219833977981724 Q 1.5134940503670573 -2.1826505901117703 1.5675298696389375 -2.1960153979899486 Q 1.577957834761581 -2.198594571440123 1.5836917888475786 -2.1947313220759823 Q 1.5894257429335763 -2.1908680727118415 1.5937301150945355 -2.1836332746539897 Q 1.5980344872554946 -2.1763984765961375 1.6020993313154404 -2.1680984465521282 Q 1.6061641753753861 -2.159798416508119 1.6135495372316717 -2.1533256469696367 Q 1.6209348990879575 -2.1468528774311544 1.6323568341499424 -2.144396449948927 Q 1.6437787692119274 -2.1419400224667 1.6632127042132177 -2.146746663896571 L 2.195986922297369 -2.2785189801691357 Q 2.215420857298659 -2.283325621599007 2.2243808540672956 -2.2908231608247576 Q 2.233340850835932 -2.298320700050508 2.2368574525169556 -2.3074898781959914 Q 2.240374054197979 -2.316659056341474 2.240101197455358 -2.3258969676400927 Q 2.2398283407127373 -2.335134878938711 2.2402639526984345 -2.3435420285648245 Q 2.2406995646841312 -2.3519491781909374 2.2439715804767806 -2.3580398955347746 Q 2.2472435962694295 -2.3641306128786117 2.257671561392073 -2.3667097863287867 Q 2.311707380663953 -2.380074594206965 2.349184961217984 -2.3312481527328055 Q 2.386662541772015 -2.2824217112586465 2.411868100489632 -2.1805120521055392 Q 2.4245294974268536 -2.1293202233216526 2.4266427121671645 -2.0984057356799646 Q 2.428755926907476 -2.067491248038276 2.419946493937273 -2.049216567113084 Q 2.41113706096707 -2.0309418861878923 2.3908622487185527 -2.021400318398726 Q 2.370587436470035 -2.01185875060956 2.338355544272773 -2.0038867599453836 L 2.1001738697969823 -1.9459827080479997" fill="#262626" fill-rule="nonzero"></path></g><g transform="matrix(1,0,0,1,0,0)"><g clip-path="url(#SvgjsClipPath1002)"><g clip-path="url(#SvgjsClipPath1000fe405ee9-628f-4e29-ab40-4e1537c72834)"><path d=" M 0 -0.7328058354341331 L 1.0935176629639893 -1.364142850596488 L 1.1255628768575825 -1.3086322621482582 C 1.143146900149234 -1.277963307733882 1.1326659913126442 -1.2388510381860198 1.1021026184862133 -1.2210841340813363 L 0 -0.5847946535164108 L -1.1021051765778467 -1.2210918083562368 C -1.1326702982085541 -1.2388576989649975 -1.1431497076050408 -1.2779729031514249 -1.1255603187659489 -1.308639936423159 L -1.0935176629639891 -1.3641505248713888 L -2.220446049250313e-16 -0.7328135097090336 Z" fill="#e8a941" transform="matrix(1,0,0,1,0,0)" fill-rule="evenodd"></path></g><g clip-path="url(#SvgjsClipPath1000fe405ee9-628f-4e29-ab40-4e1537c72834)"><path d=" M 0.9738219973381312 -1.5005914583305238 C 0.9959060024106456 -1.4623403141339164 1.0384419500934645 -1.4060929952952215 0.9814681332308388 -1.3731984949792868 L 0 -0.8065556172296384 L -0.9814706913224726 -1.3731984949792868 C -1.0384470662767316 -1.4060929952952217 -0.9959085605022794 -1.4623403141339164 -0.9738245554297648 -1.500591458330524 C -0.8010740693238936 -1.4531925784523094 -0.13237868394504337 -1.2271314627030694 0 -0.9737729511321214 C 0.13237612585340974 -1.2271314627030694 0.8010740693238936 -1.4531925784523094 0.9738219973381312 -1.5005914583305238 Z" fill="#bdbfc3" transform="matrix(1,0,0,1,0,0)" fill-rule="evenodd"></path></g><g clip-path="url(#SvgjsClipPath1000fe405ee9-628f-4e29-ab40-4e1537c72834)"><path d=" M -0.42613713668478825 -2.082368006184307 C -0.3719621035800488 -2.272812143079544 -0.1979997562868987 -2.404189705295174 0 -2.404189705295174 C 0.1979997562868987 -2.404189705295174 0.37196210358004866 -2.272812143079544 0.42613713668478836 -2.082368006184307 L 0.5966237116949595 -2.082368006184307 L 0.5966237116949595 -1.4114598715424285 C 0.5774380244432673 -1.403594592466446 0.5581014097851951 -1.3954658299522065 0.5386138677207428 -1.3870735839997108 L 0.5386138677207428 -2.0243607203017238 L 0.38065170934847625 -2.0243607203017238 L 0.37549971279848826 -2.0470228540834228 C 0.3354138060491927 -2.222122185943426 0.17962793889417394 -2.34627386321485 -0.0000012790458168154828 -2.34627386321485 C -0.17963049698580758 -2.34627386321485 -0.3354163641408263 -2.222122185943426 -0.3755022708901219 -2.0470228540834228 L -0.38065170934847625 -2.0243607203017238 L -0.5386138677207429 -2.0243607203017238 L -0.5386138677207429 -1.3870761420913444 C -0.5580724180800148 -1.3954615664661505 -0.5774098854352984 -1.4035894762831784 -0.5966262697865933 -1.4114598715424282 L -0.5966262697865933 -2.082368006184307 Z M -0.4955995569024486 -2.1817140528652033 C -0.40839348313505164 -2.377389624543237 -0.2142194963619749 -2.503437249851543 0.000008953320717486335 -2.503437249851543 C 0.21423740300341 -2.503437249851543 0.4084113897764865 -2.377389624543237 0.4956174635438835 -2.1817140528652037 L 0.6959595260093219 -2.1817140528652037 L 0.6959595260093219 -1.4506114639940484 C 0.6723585725981067 -1.4416786080096604 0.6481232124617688 -1.43226227270653 0.6234504186560925 -1.4223624580846566 L 0.6234504186560925 -2.1092100616952414 L 0.44683209800028023 -2.1092100616952414 L 0.4378276154501526 -2.132296838688111 C 0.3672850899069595 -2.3125093671482126 0.19352598860397707 -2.431090014370823 -0.0000012790458168154828 -2.431090014370823 C -0.19352854669561081 -2.431090014370823 -0.3672876479985929 -2.3125093671482126 -0.4378301735417863 -2.132296838688111 L -0.44683209800028045 -2.1092100616952414 L -0.6234555348393598 -2.1092100616952414 L -0.6234555348393598 -1.4223624580846566 C -0.648123212461769 -1.432257156523263 -0.6723636887813738 -1.4416837241929277 -0.6959697583758561 -1.4506114639940484 L -0.6959697583758561 -2.1817140528652033 Z M -0.47552109567064427 -1.9794048179335584 L -0.3395559672553511 -1.9794048179335584 C -0.3299081814960585 -2.159894156017142 -0.18074572903981434 -2.3012963013545797 0.0000012790458168154828 -2.3012963013545797 C 0.18074828713144808 -2.3012963013545797 0.3299107395876921 -2.159894156017142 0.33955852534698483 -1.9794048179335584 L 0.49365796535257744 -1.9794048179335584 L 0.49365796535257744 -1.3673148842221012 C 0.4815598973202657 -1.3618849083812667 0.46947461974612215 -1.356361988544413 0.45740213263014606 -1.3507461247115398 L 0.45740213263014606 -1.9431413109362263 L 0.3037784976683955 -1.9431413109362263 L 0.3037784976683955 -1.9612705063432587 C 0.304410812654883 -2.0702183051218497 0.24665061972516344 -2.1711618679229168 0.15240303213931994 -2.2258191173523576 C 0.05815544455347643 -2.280476366781798 -0.05814521218693658 -2.280476366781799 -0.15239279977278108 -2.22581911735236 C -0.2466403873586256 -2.1711618679229208 -0.3044005802883466 -2.0702183051218546 -0.3037682653018611 -1.96127050634326 L -0.3037682653018611 -1.9431413109362263 L -0.45740213263014606 -1.9431413109362263 L -0.45740213263014606 -1.350738450436639 C -0.46947120895727734 -1.3563509034806676 -0.4815573392286323 -1.3618738233175212 -0.49366052344421096 -1.3673072099472003 L -0.49366052344421096 -1.9794048179335584 Z" fill="#262626" transform="matrix(1,0,0,1,0,0)" fill-rule="nonzero"></path></g><g clip-path="url(#SvgjsClipPath1000fe405ee9-628f-4e29-ab40-4e1537c72834)"><path d=" M 0.3937056509545278 -0.49699071628613245 C 0.6462430151111034 -0.6529831441005591 0.6923526168060037 -0.6616474004634232 0.8971048292476977 -0.8820218785112619 C 1.0373854582488047 -1.033026027640248 1.1986501129199962 -1.1053586266707618 1.0237968754913394 -0.7846404462049388 C 0.7789875061597453 -0.33568257405717095 0.6012410670935338 -0.343684284686943 0.3298761485139641 -0.2578040323651014 C 0.15164111394574253 -0.20138787947859216 0.18468398357642357 -0.1380239497153366 0.07667368053266332 -0.24710865124519144 C -0.0010692823028275455 -0.3241404646065531 0.0038908573746432307 -0.36877148933725623 0.11061188223509033 -0.488561804353556 C 0.35956536001304973 -0.7680230829533397 0.9624922094930985 -1.0025796210176292 0.48355094530838594 -0.5768159657113408 L 0.3937056509545278 -0.4969856001028661 Z" fill="#262626" transform="matrix(1,0,0,1,0,0)" fill-rule="evenodd"></path></g><g clip-path="url(#SvgjsClipPath1000fe405ee9-628f-4e29-ab40-4e1537c72834)"><path d=" M -0.3937056509545276 -0.49699071628613245 C -0.6462404570194695 -0.6529831441005591 -0.6923551748976372 -0.6616474004634232 -0.897107387339331 -0.8820218785112619 C -1.0373854582488047 -1.033026027640248 -1.198650112919996 -1.1053663009456622 -1.023799433582973 -0.7846404462049388 C -0.778990064251379 -0.33568257405717095 -0.6012410670935336 -0.343684284686943 -0.32987614851396396 -0.2578040323651014 C -0.15164367203737594 -0.20138787947859216 -0.1846839835764238 -0.1380239497153366 -0.07667623862429651 -0.24710865124519144 C 0.0010692823028277676 -0.3241404646065531 -0.0038934154662766396 -0.36877148933725623 -0.11061444032672352 -0.488561804353556 C -0.3595679181046829 -0.7680230829533397 -0.9624922094930983 -1.0025796210176292 -0.48355606149165287 -0.5768159657113408 L -0.39370565095452736 -0.4969856001028661 Z" fill="#262626" transform="matrix(1,0,0,1,0,0)" fill-rule="evenodd"></path></g></g></g></g><defs><clipPath id="SvgjsClipPath1002"><path d=" M -1.1340992286387688 -2.5036191878489977 h 2.2681984572775375 v 2.3161191878489977 h -2.2681984572775375 Z"></path></clipPath><clipPath id="SvgjsClipPath1000fe405ee9-628f-4e29-ab40-4e1537c72834"><path d=" M -1.1340992286387688 -2.5036191878489977 L 1.1340992286387688 -2.5036191878489977 L 1.1340992286387688 -0.1875 L -1.1340992286387688 -0.1875 Z"></path></clipPath></defs></svg>